<?xml version="1.0" standalone="no"?><!DOCTYPE svg PUBLIC "-//W3C//DTD SVG 1.1//EN" "http://www.w3.org/Graphics/SVG/1.1/DTD/svg11.dtd"><svg class="icon" width="16px" height="16.00px" viewBox="0 0 1024 1024" version="1.1" xmlns="http://www.w3.org/2000/svg"><path fill="#d81e90" d="M256 320v-48a16 16 0 0 1 16-16h160a16 16 0 0 1 16 16v48h388.864c6.16 0 11.136 4.976 11.136 11.136v441.728a11.136 11.136 0 0 1-11.136 11.136H187.136a11.136 11.136 0 0 1-11.136-11.136V331.136c0-6.16 4.976-11.136 11.136-11.136H256z m43.04 0h105.92v-24.384h-105.92V320zM224 736h576V368H224v368z m475.136-336h41.728c6.16 0 11.136 4.976 11.136 11.136v41.728a11.136 11.136 0 0 1-11.136 11.136h-41.728a11.136 11.136 0 0 1-11.136-11.136v-41.728c0-6.16 4.976-11.136 11.136-11.136zM504 680a128 128 0 1 1 0-256 128 128 0 0 1 0 256z m0-48a80 80 0 1 0 0-160 80 80 0 0 0 0 160z" /></svg>