<?xml version="1.0" standalone="no"?><!DOCTYPE svg PUBLIC "-//W3C//DTD SVG 1.1//EN" "http://www.w3.org/Graphics/SVG/1.1/DTD/svg11.dtd"><svg t="1552041861790" class="icon" style="" viewBox="0 0 1024 1024" fill='red' version="1.1" xmlns="http://www.w3.org/2000/svg" p-id="4713" xmlns:xlink="http://www.w3.org/1999/xlink" width="16" height="16"><defs><style type="text/css"></style></defs><path d="M632.32 478.208H438.784c3.584 10.752 6.144 22.016 6.144 34.304 0 11.264-2.048 22.016-5.12 32.256h193.024c18.432 0 33.28-14.848 33.28-33.28s-15.36-33.28-33.792-33.28z"  p-id="4714"></path><path d="M846.336 95.232H177.664c-45.568 0-82.944 37.376-82.944 82.944v668.672c0 45.568 37.376 82.944 82.944 82.944h668.672c45.568 0 82.944-37.376 82.944-82.944V178.176c0-45.568-37.376-82.944-82.944-82.944z m16.384 751.616c0 9.216-7.168 16.384-16.384 16.384H177.664c-9.216 0-16.384-7.168-16.384-16.384V178.176c0-9.216 7.168-16.384 16.384-16.384h668.672c9.216 0 16.384 7.168 16.384 16.384v668.672z"  p-id="4715"></path><path d="M438.784 478.208c-14.336-39.936-51.712-68.096-96.256-68.096-56.32 0-102.4 46.08-102.4 102.4s46.08 102.4 102.4 102.4c45.056 0 83.456-29.184 97.28-70.144 3.584-10.24 5.12-20.992 5.12-32.256 0-11.776-2.56-23.552-6.144-34.304z m-96.256 85.504c-28.16 0-51.2-23.04-51.2-51.2s23.04-51.2 51.2-51.2 51.2 23.04 51.2 51.2-23.04 51.2-51.2 51.2z"  p-id="4716" ></path></svg>